<svg width="160" height="36" viewBox="0 0 160 36" fill="none" xmlns="http://www.w3.org/2000/svg">
<g clip-path="url(#clip0)">
<rect width="160" height="36" fill="white"/>
<path d="M35.96 6.39H34.04C34.02 6.31667 34 6.2 33.98 6.04C33.96 5.88667 33.95 5.73333 33.95 5.58C33.95 5.42667 33.9633 5.29 33.99 5.17C34.01 5.05667 34.05 4.96 34.11 4.88C34.17 4.80667 34.2533 4.75 34.36 4.71C34.4667 4.67 34.6067 4.65 34.78 4.65L39.49 4.65C39.63 4.65 39.7367 4.68667 39.81 4.76C39.89 4.84 39.9533 4.94667 40 5.08C40.08 5.30667 40.1367 5.57 40.17 5.87C40.21 6.17 40.23 6.49 40.23 6.83C40.23 7.75 40.0367 8.44333 39.65 8.91C39.2633 9.37667 38.74 9.61 38.08 9.61C37.6667 9.61 37.3133 9.50333 37.02 9.29C36.7267 9.07667 36.5 8.82333 36.34 8.53C36.0133 8.77 35.7067 9.00667 35.42 9.24C35.1333 9.47333 34.8733 9.65667 34.64 9.79C34.4067 9.72333 34.2267 9.6 34.1 9.42C33.98 9.24667 33.92 9.05 33.92 8.83C33.92 8.68333 33.9367 8.55667 33.97 8.45C34.0033 8.34333 34.05 8.25 34.11 8.17C34.17 8.09 34.2433 8.01667 34.33 7.95C34.4167 7.88333 34.51 7.82 34.61 7.76L35.96 6.92V6.39ZM37.29 7.02C37.29 7.27333 37.3533 7.47333 37.48 7.62C37.6133 7.76667 37.8067 7.84 38.06 7.84C38.3133 7.84 38.5033 7.75667 38.63 7.59C38.7633 7.43 38.83 7.17333 38.83 6.82C38.83 6.72 38.8267 6.64 38.82 6.58C38.8133 6.52 38.8033 6.45333 38.79 6.38L37.29 6.38V7.02ZM39.88 13.3119C39.9467 13.4252 40.01 13.5952 40.07 13.8219C40.13 14.0552 40.16 14.2885 40.16 14.5219C40.16 14.8552 40.11 15.1485 40.01 15.4019C39.9167 15.6619 39.7667 15.8285 39.56 15.9019C39.2133 16.0219 38.81 16.1519 38.35 16.2919C37.89 16.4319 37.4133 16.5719 36.92 16.7119C36.4333 16.8519 35.95 16.9885 35.47 17.1219C34.9967 17.2552 34.5767 17.3719 34.21 17.4719C34.1167 17.3919 34.0433 17.2719 33.99 17.1119C33.93 16.9519 33.9 16.7619 33.9 16.5419C33.9 16.3819 33.9133 16.2452 33.94 16.1319C33.9667 16.0252 34.0067 15.9352 34.06 15.8619C34.1133 15.7952 34.1833 15.7385 34.27 15.6919C34.3567 15.6519 34.4567 15.6152 34.57 15.5819L35.26 15.4019V13.5919C35.06 13.5385 34.8533 13.4852 34.64 13.4319C34.4267 13.3785 34.22 13.3252 34.02 13.2719C33.9867 13.1785 33.96 13.0785 33.94 12.9719C33.9133 12.8719 33.9 12.7485 33.9 12.6019C33.9 12.2619 33.9567 12.0085 34.07 11.8419C34.19 11.6819 34.3533 11.6019 34.56 11.6019C34.6533 11.6019 34.7467 11.6152 34.84 11.6419C34.9333 11.6685 35.0433 11.6985 35.17 11.7319C35.35 11.7785 35.5733 11.8419 35.84 11.9219C36.1067 12.0085 36.3933 12.1019 36.7 12.2019C37.0133 12.3019 37.3333 12.4085 37.66 12.5219C37.9867 12.6352 38.2933 12.7419 38.58 12.8419C38.8733 12.9419 39.1333 13.0319 39.36 13.1119C39.5867 13.1985 39.76 13.2652 39.88 13.3119ZM38.59 14.5119C38.31 14.4185 37.9967 14.3119 37.65 14.1919C37.31 14.0785 36.9633 13.9752 36.61 13.8819V15.1219C36.97 15.0285 37.32 14.9319 37.66 14.8319C38.0067 14.7385 38.3167 14.6519 38.59 14.5719V14.5119ZM34.21 24.9814C34.1167 24.8881 34.0467 24.7514 34 24.5714C33.9467 24.3981 33.92 24.1881 33.92 23.9414C33.92 23.6947 33.9567 23.4614 34.03 23.2414C34.1033 23.0214 34.28 22.8414 34.56 22.7014L36.58 21.7114C36.7867 21.6114 36.98 21.5214 37.16 21.4414C37.3467 21.3614 37.56 21.2747 37.8 21.1814L37.79 21.1214C37.43 21.1481 37.0633 21.1614 36.69 21.1614C36.3167 21.1681 35.95 21.1714 35.59 21.1714H34.04C34.02 21.0981 34 20.9847 33.98 20.8314C33.96 20.6847 33.95 20.5381 33.95 20.3914C33.95 20.2447 33.96 20.1147 33.98 20.0014C34 19.8881 34.04 19.7947 34.1 19.7214C34.16 19.6481 34.24 19.5914 34.34 19.5514C34.4467 19.5114 34.5833 19.4914 34.75 19.4914H39.75C39.8833 19.5847 39.9833 19.7281 40.05 19.9214C40.1167 20.1147 40.15 20.3214 40.15 20.5414C40.15 20.7881 40.11 21.0214 40.03 21.2414C39.9567 21.4681 39.7833 21.6481 39.51 21.7814L37.49 22.7814C37.2833 22.8814 37.0867 22.9714 36.9 23.0514C36.72 23.1314 36.51 23.2181 36.27 23.3114L36.28 23.3614C36.64 23.3347 37 23.3181 37.36 23.3114C37.72 23.3047 38.08 23.3014 38.44 23.3014H40.06C40.08 23.3747 40.1 23.4847 40.12 23.6314C40.14 23.7847 40.15 23.9347 40.15 24.0814C40.15 24.3747 40.0967 24.5981 39.99 24.7514C39.89 24.9047 39.6767 24.9814 39.35 24.9814L34.21 24.9814ZM36.25 29.2385L34.04 29.2385C34.02 29.1652 34 29.0485 33.98 28.8885C33.96 28.7285 33.95 28.5718 33.95 28.4185C33.95 28.2652 33.9633 28.1285 33.99 28.0085C34.01 27.8952 34.05 27.7985 34.11 27.7185C34.17 27.6385 34.2533 27.5785 34.36 27.5385C34.4667 27.4985 34.6067 27.4785 34.78 27.4785L40.06 27.4785C40.0733 27.5518 40.09 27.6685 40.11 27.8285C40.1367 27.9885 40.15 28.1418 40.15 28.2885C40.15 28.4418 40.1367 28.5752 40.11 28.6885C40.09 28.8085 40.05 28.9085 39.99 28.9885C39.93 29.0685 39.8467 29.1285 39.74 29.1685C39.6333 29.2085 39.4933 29.2285 39.32 29.2285H37.73L40.12 31.3085C40.12 31.7618 40.0333 32.0852 39.86 32.2785C39.6933 32.4785 39.4933 32.5785 39.26 32.5785C39.0867 32.5785 38.9233 32.5352 38.77 32.4485C38.6167 32.3618 38.4433 32.2218 38.25 32.0285L37 30.7785C36.8133 30.9452 36.6233 31.1185 36.43 31.2985C36.2367 31.4785 36.0433 31.6552 35.85 31.8285C35.6633 32.0018 35.4833 32.1685 35.31 32.3285C35.1367 32.4952 34.98 32.6452 34.84 32.7785C34.6933 32.7785 34.5633 32.7518 34.45 32.6985C34.3367 32.6452 34.24 32.5718 34.16 32.4785C34.08 32.3918 34.02 32.2918 33.98 32.1785C33.94 32.0652 33.92 31.9452 33.92 31.8185C33.92 31.5452 33.9867 31.3218 34.12 31.1485C34.26 30.9752 34.4233 30.8085 34.61 30.6485L36.25 29.2385Z" fill="black"/>
<path d="M50.058 20.806C49.0607 20.466 48.154 20.126 47.338 19.786C46.522 19.4233 45.8193 18.9927 45.23 18.494C44.6407 17.9953 44.176 17.406 43.836 16.726C43.5187 16.0233 43.36 15.1733 43.36 14.176C43.36 12.2493 44.0967 10.708 45.57 9.552C47.066 8.396 49.1513 7.818 51.826 7.818C52.8007 7.818 53.7073 7.886 54.546 8.022C55.3847 8.158 56.0987 8.37333 56.688 8.668C57.3 8.94 57.776 9.30267 58.116 9.756C58.456 10.1867 58.626 10.6967 58.626 11.286C58.626 11.8753 58.49 12.3853 58.218 12.816C57.946 13.224 57.6173 13.5753 57.232 13.87C56.7333 13.5527 56.0647 13.2807 55.226 13.054C54.3873 12.8047 53.4693 12.68 52.472 12.68C51.452 12.68 50.704 12.8273 50.228 13.122C49.752 13.394 49.514 13.7453 49.514 14.176C49.514 14.516 49.6613 14.7993 49.956 15.026C50.2507 15.23 50.6927 15.4227 51.282 15.604L53.084 16.182C55.2147 16.862 56.8467 17.7347 57.98 18.8C59.136 19.8427 59.714 21.2707 59.714 23.084C59.714 25.0107 58.9547 26.5747 57.436 27.776C55.9173 28.9547 53.6847 29.544 50.738 29.544C49.6953 29.544 48.7207 29.4533 47.814 29.272C46.93 29.1133 46.148 28.8753 45.468 28.558C44.8107 28.218 44.2893 27.81 43.904 27.334C43.5413 26.8353 43.36 26.2687 43.36 25.634C43.36 24.9767 43.5527 24.4213 43.938 23.968C44.3233 23.492 44.7427 23.1293 45.196 22.88C45.8307 23.3787 46.6013 23.8093 47.508 24.172C48.4373 24.5347 49.446 24.716 50.534 24.716C51.6447 24.716 52.4267 24.546 52.88 24.206C53.3333 23.866 53.56 23.4693 53.56 23.016C53.56 22.5627 53.3787 22.2227 53.016 21.996C52.6533 21.7467 52.1433 21.5087 51.486 21.282L50.058 20.806ZM59.6829 13.156C59.5243 12.9067 59.3769 12.5667 59.2409 12.136C59.1049 11.7053 59.0369 11.252 59.0369 10.776C59.0369 9.892 59.2296 9.25733 59.6149 8.872C60.0229 8.48667 60.5443 8.294 61.1789 8.294H76.0029C76.1616 8.54333 76.3089 8.88333 76.4449 9.314C76.5809 9.74467 76.6489 10.198 76.6489 10.674C76.6489 11.558 76.4449 12.1927 76.0369 12.578C75.6516 12.9633 75.1416 13.156 74.5069 13.156H70.7329V28.864C70.4836 28.932 70.0869 29 69.5429 29.068C69.0216 29.136 68.5003 29.17 67.9789 29.17C67.4576 29.17 66.9929 29.1247 66.5849 29.034C66.1996 28.966 65.8709 28.83 65.5989 28.626C65.3269 28.422 65.1229 28.1387 64.9869 27.776C64.8509 27.4133 64.7829 26.9373 64.7829 26.348V13.156H59.6829ZM83.5735 22.336V28.864C83.3242 28.932 82.9275 29 82.3835 29.068C81.8622 29.136 81.3408 29.17 80.8195 29.17C80.2982 29.17 79.8335 29.1247 79.4255 29.034C79.0402 28.966 78.7115 28.83 78.4395 28.626C78.1902 28.422 77.9975 28.1387 77.8615 27.776C77.7255 27.4133 77.6575 26.9373 77.6575 26.348V10.334C77.6575 9.858 77.7822 9.49533 78.0315 9.246C78.3035 8.974 78.6662 8.75867 79.1195 8.6C79.8902 8.328 80.7855 8.13533 81.8055 8.022C82.8255 7.886 83.9135 7.818 85.0695 7.818C88.1975 7.818 90.5548 8.47533 92.1415 9.79C93.7282 11.1047 94.5215 12.884 94.5215 15.128C94.5215 16.5333 94.1588 17.7347 93.4335 18.732C92.7082 19.7293 91.8468 20.5 90.8495 21.044C91.6655 22.1547 92.4702 23.1973 93.2635 24.172C94.0568 25.1467 94.6802 26.0307 95.1335 26.824C94.9068 27.6173 94.4875 28.2293 93.8755 28.66C93.2862 29.068 92.6175 29.272 91.8695 29.272C91.3708 29.272 90.9402 29.2153 90.5775 29.102C90.2148 28.9887 89.8975 28.83 89.6255 28.626C89.3535 28.422 89.1042 28.1727 88.8775 27.878C88.6508 27.5833 88.4355 27.266 88.2315 26.926L85.3755 22.336H83.5735ZM85.7155 17.814C86.5768 17.814 87.2568 17.5987 87.7555 17.168C88.2542 16.7147 88.5035 16.0573 88.5035 15.196C88.5035 14.3347 88.2202 13.6887 87.6535 13.258C87.1095 12.8047 86.2368 12.578 85.0355 12.578C84.6955 12.578 84.4235 12.5893 84.2195 12.612C84.0155 12.6347 83.7888 12.6687 83.5395 12.714V17.814H85.7155ZM96.5062 11.558C96.5062 10.5833 96.7896 9.81267 97.3562 9.246C97.9229 8.67933 98.6936 8.396 99.6682 8.396H110.888C111.047 8.64533 111.183 8.974 111.296 9.382C111.432 9.79 111.5 10.2207 111.5 10.674C111.5 11.5353 111.308 12.1473 110.922 12.51C110.56 12.8727 110.072 13.054 109.46 13.054H102.286V16.216H109.936C110.095 16.4653 110.231 16.794 110.344 17.202C110.48 17.5873 110.548 18.0067 110.548 18.46C110.548 19.3213 110.367 19.9333 110.004 20.296C109.642 20.6587 109.154 20.84 108.542 20.84H102.286V24.41H111.024C111.183 24.6593 111.319 24.988 111.432 25.396C111.568 25.804 111.636 26.2347 111.636 26.688C111.636 27.5493 111.444 28.1727 111.058 28.558C110.696 28.9207 110.208 29.102 109.596 29.102H99.6682C98.6936 29.102 97.9229 28.8187 97.3562 28.252C96.7896 27.6853 96.5062 26.9147 96.5062 25.94V11.558ZM118.081 9.008C118.466 8.78133 119.044 8.566 119.815 8.362C120.608 8.158 121.402 8.056 122.195 8.056C123.328 8.056 124.326 8.226 125.187 8.566C126.071 8.88333 126.638 9.39333 126.887 10.096C127.295 11.2747 127.737 12.646 128.213 14.21C128.689 15.774 129.165 17.3947 129.641 19.072C130.117 20.7267 130.582 22.37 131.035 24.002C131.488 25.6113 131.885 27.0393 132.225 28.286C131.953 28.6033 131.545 28.8527 131.001 29.034C130.457 29.238 129.811 29.34 129.063 29.34C128.519 29.34 128.054 29.2947 127.669 29.204C127.306 29.1133 127 28.9773 126.751 28.796C126.524 28.6147 126.332 28.3767 126.173 28.082C126.037 27.7873 125.912 27.4473 125.799 27.062L125.187 24.716H119.033C118.852 25.396 118.67 26.0987 118.489 26.824C118.308 27.5493 118.126 28.252 117.945 28.932C117.628 29.0453 117.288 29.136 116.925 29.204C116.585 29.2947 116.166 29.34 115.667 29.34C114.511 29.34 113.65 29.1473 113.083 28.762C112.539 28.354 112.267 27.7987 112.267 27.096C112.267 26.7787 112.312 26.4613 112.403 26.144C112.494 25.8267 112.596 25.4527 112.709 25.022C112.868 24.41 113.083 23.6507 113.355 22.744C113.65 21.8373 113.967 20.8627 114.307 19.82C114.647 18.7547 115.01 17.6667 115.395 16.556C115.78 15.4453 116.143 14.4027 116.483 13.428C116.823 12.4307 117.129 11.5467 117.401 10.776C117.696 10.0053 117.922 9.416 118.081 9.008ZM122.161 13.394C121.844 14.346 121.481 15.4113 121.073 16.59C120.688 17.746 120.336 18.9247 120.019 20.126H124.235C123.918 18.902 123.589 17.712 123.249 16.556C122.932 15.3773 122.637 14.3233 122.365 13.394H122.161ZM147.387 23.934C147.093 24.1833 146.707 24.3873 146.231 24.546C145.778 24.682 145.245 24.75 144.633 24.75C143.817 24.75 143.137 24.648 142.593 24.444C142.072 24.24 141.732 23.8887 141.573 23.39C140.939 21.3953 140.417 19.786 140.009 18.562C139.601 17.3153 139.284 16.2273 139.057 15.298H138.887C138.819 16.6353 138.763 17.8593 138.717 18.97C138.695 20.058 138.672 21.1233 138.649 22.166C138.649 23.2087 138.627 24.2627 138.581 25.328C138.559 26.3933 138.513 27.572 138.445 28.864C138.151 28.9773 137.765 29.068 137.289 29.136C136.813 29.2267 136.337 29.272 135.861 29.272C134.864 29.272 134.082 29.1133 133.515 28.796C132.971 28.4787 132.699 27.9007 132.699 27.062L133.685 9.722C133.867 9.42733 134.263 9.11 134.875 8.77C135.487 8.43 136.349 8.26 137.459 8.26C138.661 8.26 139.601 8.45267 140.281 8.838C140.961 9.20067 141.46 9.80133 141.777 10.64C141.981 11.184 142.197 11.8073 142.423 12.51C142.673 13.2127 142.911 13.938 143.137 14.686C143.387 15.434 143.625 16.182 143.851 16.93C144.078 17.6553 144.282 18.3127 144.463 18.902H144.633C145.177 16.998 145.721 15.162 146.265 13.394C146.809 11.6033 147.308 10.1073 147.761 8.906C148.101 8.72467 148.532 8.57733 149.053 8.464C149.597 8.328 150.198 8.26 150.855 8.26C151.966 8.26 152.873 8.43 153.575 8.77C154.278 9.08733 154.686 9.552 154.799 10.164C154.89 10.6173 154.981 11.32 155.071 12.272C155.185 13.2013 155.298 14.2553 155.411 15.434C155.525 16.6127 155.638 17.8593 155.751 19.174C155.865 20.4887 155.967 21.758 156.057 22.982C156.171 24.1833 156.261 25.294 156.329 26.314C156.397 27.3113 156.443 28.082 156.465 28.626C156.08 28.8527 155.672 29.0113 155.241 29.102C154.833 29.2153 154.301 29.272 153.643 29.272C152.782 29.272 152.057 29.1247 151.467 28.83C150.878 28.5353 150.561 27.9573 150.515 27.096C150.379 24.6253 150.289 22.404 150.243 20.432C150.221 18.46 150.175 16.8053 150.107 15.468H149.937C149.711 16.352 149.382 17.4627 148.951 18.8C148.521 20.1373 147.999 21.8487 147.387 23.934Z" fill="black"/>
<path d="M29.7726 4.00133V12.0157H14.514C14.3299 12.0139 14.1471 12.0441 13.9762 12.1047C13.8054 12.1653 13.6499 12.255 13.5187 12.3687C13.4121 12.4615 13.325 12.5702 13.2616 12.6898C13.4035 10.6597 14.2789 8.72234 15.7605 7.15966C17.2421 5.59697 19.2525 4.49053 21.4992 4.00133H29.7726Z" fill="black"/>
<path d="M21.7781 24.2142C21.6522 26.2545 20.7859 28.2058 19.306 29.782C17.8263 31.3581 15.8109 32.4763 13.5552 32.9727H5.66159V24.9601H20.4822C20.6707 24.9622 20.8579 24.9308 21.0323 24.8678C21.1991 24.808 21.3505 24.7194 21.4775 24.607C21.6051 24.494 21.7072 24.3607 21.7781 24.2142Z" fill="black"/>
<path d="M30.9999 23.7325C31.0064 24.9685 30.7255 26.1926 30.1745 27.3298C30.0623 27.5587 29.9392 27.7843 29.8056 28.004C29.8018 28.0132 29.798 28.0166 29.798 28.0229C29.7968 28.0276 29.7943 28.032 29.7908 28.0359C28.6572 29.9191 26.8209 31.4024 24.5901 32.2369C23.2932 32.7283 21.8944 32.9784 20.4821 32.9715H13.5584H6.13158C8.36846 32.4627 17.8695 31.3227 19.3329 29.7514C20.7964 28.1802 21.6527 26.2404 21.7779 24.213V24.2096C21.9103 23.907 21.9128 23.5724 21.7851 23.2683C21.7818 23.2621 21.7779 23.2524 21.7741 23.2461C21.7053 23.0999 21.6044 22.967 21.4773 22.8549C21.3471 22.7404 21.1917 22.6502 21.0206 22.5901C20.8495 22.5298 20.6663 22.5009 20.4821 22.5049H14.5141C14.2173 22.5049 13.9206 22.4956 13.6271 22.4701C13.6166 22.4701 13.6057 22.4667 13.5913 22.4667C12.4951 22.3904 11.421 22.1541 10.4132 21.7674C7.90557 20.8188 5.90882 19.0596 4.83603 16.8535C4.69476 16.5693 4.57148 16.2785 4.46673 15.9823C4.15359 15.0956 3.99623 14.1721 4.0001 13.2436C3.99381 12.0048 4.27838 10.7782 4.83603 9.64043C5.91505 7.44115 7.9104 5.68777 10.4132 4.7396C11.1437 4.45855 11.9108 4.25774 12.6972 4.14172C12.7263 4.13501 12.7478 4.13207 12.7621 4.12872C12.7693 4.12711 12.7767 4.12613 12.784 4.12578C13.3557 4.04177 13.9345 3.9997 14.5141 4L29.7908 4.14172C27.5441 4.63092 17.2422 5.59565 15.7606 7.15833C14.279 8.72101 13.4036 10.6584 13.2617 12.6885C13.2464 12.7121 13.2331 12.7366 13.2221 12.7619C13.1506 12.914 13.1149 13.0773 13.1171 13.2419C13.115 13.4143 13.1518 13.5853 13.2254 13.7451C13.2331 13.7628 13.2428 13.7798 13.2545 13.7958C13.3169 13.9232 13.4066 14.0388 13.5188 14.1362C13.6495 14.2505 13.8049 14.3406 13.9758 14.4013C14.1468 14.4619 14.3298 14.4918 14.5141 14.4893H20.4821C21.8914 14.4827 23.2875 14.7283 24.5854 15.2113C27.1088 16.1434 29.116 17.9073 30.1768 20.1247C30.317 20.4121 30.4392 20.706 30.5428 21.0051C30.8493 21.8891 31.0034 22.8084 30.9999 23.7325Z" fill="url(#paint0_linear)"/>
<g style="mix-blend-mode:multiply" opacity="0.16">
<g style="mix-blend-mode:multiply" opacity="0.16">
<path d="M21.7778 24.2142C21.652 26.2545 20.7857 28.2058 19.3059 29.782C17.8261 31.3581 15.8107 32.4763 13.555 32.9727H11.3545C13.2011 32.2091 14.8313 31.0941 16.1269 29.7085C17.4225 28.3228 18.3511 26.7013 18.8454 24.9613H20.4811C20.6696 24.9635 20.8567 24.9321 21.0311 24.8691C21.198 24.8093 21.3494 24.7206 21.4763 24.6083C21.6045 24.495 21.7068 24.3612 21.7778 24.2142Z" fill="black"/>
</g>
</g>
<g style="mix-blend-mode:multiply" opacity="0.16">
<g style="mix-blend-mode:multiply" opacity="0.16">
<path d="M23.4826 4.00133C21.4448 5.33376 17.3081 8.4091 16.2656 12.0157H14.514C14.3299 12.0139 14.1471 12.0441 13.9762 12.1047C13.8054 12.1653 13.6499 12.255 13.5187 12.3687C13.4121 12.4615 13.325 12.5702 13.2616 12.6898C13.4035 10.6597 14.2789 8.72234 15.7605 7.15966C17.2421 5.59697 19.2525 4.49053 21.4992 4.00133H23.4826Z" fill="black"/>
</g>
</g>
<g style="mix-blend-mode:multiply" opacity="0.25">
<g style="mix-blend-mode:multiply" opacity="0.25">
<path d="M29.7728 6.39944V12.0177H17.0297C18.0898 11.9254 19.1538 11.8621 20.2145 11.8172C21.2752 11.7724 22.3392 11.7334 23.3993 11.7187C24.4633 11.6902 25.524 11.6936 26.588 11.6839C27.5423 11.6936 28.4879 11.6936 29.4403 11.7124C29.4508 11.3468 29.4584 10.9808 29.4761 10.6123C29.4942 10.1444 29.5123 9.67687 29.5452 9.20939C29.5977 8.27274 29.6679 7.33441 29.7728 6.39944Z" fill="black"/>
</g>
</g>
<g style="mix-blend-mode:screen" opacity="0.7">
<g style="mix-blend-mode:screen" opacity="0.7">
<path d="M30.9999 23.7325C31.0064 24.9685 30.7255 26.1926 30.1744 27.3298C30.0623 27.5587 29.9392 27.7843 29.8056 28.004C29.8419 27.9181 29.9612 27.6442 30.1396 27.2245C30.416 26.5109 30.5969 25.7714 30.6788 25.0209C30.7303 24.5239 30.7413 24.0242 30.7117 23.5258C30.6754 22.9746 30.5883 22.4269 30.4512 21.8881C30.3802 21.6095 30.292 21.3344 30.1868 21.0643C30.0637 20.7846 29.9406 20.5011 29.8175 20.2181C29.5413 19.6616 29.2018 19.1311 28.8041 18.6346C28.4167 18.1315 27.9688 17.6665 27.4682 17.2476C26.9859 16.8411 26.4626 16.474 25.9046 16.1508C25.3754 15.8488 24.8199 15.584 24.2432 15.3589C23.7238 15.1624 23.1878 15.0018 22.6401 14.8783C21.8063 14.6967 20.9538 14.5891 20.0956 14.5572C19.4657 14.5153 19.1074 14.4905 19.1074 14.4905H20.4792C21.8885 14.4839 23.2846 14.7296 24.5825 15.2125C27.1059 16.1447 29.1132 17.9086 30.174 20.1259C30.3141 20.4133 30.4363 20.7073 30.5399 21.0064C30.8472 21.8898 31.0023 22.8087 30.9999 23.7325Z" fill="white"/>
</g>
</g>
<g style="mix-blend-mode:multiply" opacity="0.25">
<g style="mix-blend-mode:multiply" opacity="0.25">
<path d="M12.4149 32.9715H5.66159V26.913C5.74461 27.4187 5.79518 27.9193 5.84957 28.427C5.89299 28.9326 5.93307 29.4383 5.95836 29.9406C5.99462 30.4462 6.00178 30.9523 6.02325 31.4579L6.03805 32.6407C6.47557 32.6469 6.91357 32.6469 7.35158 32.6566C7.91268 32.6759 8.47379 32.6822 9.03822 32.714C10.1638 32.7618 11.2893 32.8348 12.4149 32.9715Z" fill="black"/>
</g>
</g>
<g style="mix-blend-mode:screen" opacity="0.7">
<g style="mix-blend-mode:screen" opacity="0.7">
<path d="M13.5913 22.4667C12.4951 22.3904 11.421 22.154 10.4132 21.7673C7.90557 20.8188 5.90882 19.0595 4.83603 16.8535C4.69476 16.5693 4.57148 16.2784 4.46673 15.9822C4.15359 15.0955 3.99623 14.172 4.0001 13.2436C3.99381 12.0048 4.27838 10.7782 4.83603 9.64038C5.91505 7.44109 7.9104 5.68771 10.4132 4.73954C11.1437 4.45849 11.9108 4.25769 12.6972 4.14166C12.3027 4.22502 11.9136 4.32691 11.5316 4.44689C8.93986 5.26029 6.79557 6.90707 5.5312 9.05508C4.69507 10.4656 4.30148 12.0463 4.39087 13.6348C4.41891 14.4329 4.57618 15.2235 4.85797 15.9827C4.94099 16.1764 5.02068 16.3705 5.10036 16.5613L5.1581 16.7042L5.17287 16.7394C5.17621 16.7454 5.17862 16.7518 5.18004 16.7583L5.21629 16.8283L5.35371 17.0988C5.53648 17.4488 5.74562 17.7878 5.97971 18.1134C6.42349 18.7333 6.947 19.3063 7.53991 19.8211C8.07807 20.2818 8.66722 20.6942 9.29862 21.052C9.83763 21.3526 10.4029 21.6152 10.9891 21.8373C11.4465 22.0083 11.9184 22.1476 12.4004 22.2541C12.7931 22.3425 13.1906 22.4135 13.5913 22.4667Z" fill="white"/>
</g>
</g>
<g style="mix-blend-mode:screen" opacity="0.7">
<g style="mix-blend-mode:screen" opacity="0.7">
<path d="M21.4993 4.00133C19.2526 4.49053 17.2422 5.59697 15.7606 7.15966C14.279 8.72234 13.4035 10.6597 13.2616 12.6898C13.2463 12.7134 13.2331 12.7379 13.222 12.7632L13.2511 12.6835C13.2401 12.432 13.2401 12.1779 13.2401 11.9234C13.2616 11.6693 13.2941 11.4148 13.3232 11.157C13.3709 10.9054 13.4353 10.6539 13.4897 10.4023C13.5622 10.1507 13.66 9.90925 13.743 9.6581C13.8385 9.41325 13.9568 9.17762 14.0723 8.93612C14.1954 8.70091 14.3404 8.47493 14.4707 8.24265C14.6224 8.01709 14.7889 7.80409 14.9478 7.58146C15.1215 7.37183 15.3023 7.16471 15.4836 6.96094C15.6788 6.76389 15.8854 6.57647 16.0843 6.38529C16.3014 6.20752 16.5137 6.02933 16.7394 5.85743L17.4451 5.38366C17.6913 5.24069 17.9408 5.10694 18.1942 4.97025C18.4585 4.85579 18.7157 4.73169 18.9795 4.62017L19.7978 4.34051C20.0841 4.26714 20.3623 4.19419 20.6447 4.13088C20.9272 4.08057 21.2135 4.03948 21.4993 4.00133Z" fill="white"/>
</g>
</g>
<g style="mix-blend-mode:screen" opacity="0.7">
<g style="mix-blend-mode:screen" opacity="0.7">
<path d="M21.8434 24.2096C21.8468 24.4704 21.8468 24.7249 21.8396 24.9823C21.8215 25.2402 21.7852 25.4947 21.7528 25.7521C21.7022 26.0065 21.6443 26.261 21.5791 26.5156C21.5066 26.7671 21.4126 27.0149 21.3291 27.2627C21.2337 27.5109 21.1086 27.7461 20.9951 27.9881C20.8725 28.2266 20.7312 28.4555 20.5933 28.6878C20.445 28.9134 20.2789 29.1297 20.1196 29.3524C19.9459 29.5653 19.7646 29.7716 19.5837 29.9787C19.3886 30.1762 19.182 30.367 18.983 30.5607C18.7659 30.7422 18.5536 30.9204 18.3279 31.0953L17.6218 31.5724C17.3756 31.7155 17.1259 31.8552 16.8727 31.9917L16.0873 32.351L15.2657 32.6403L14.4222 32.8566C14.2051 32.8948 13.9927 32.9329 13.778 32.9648L13.8257 32.9711L13.5757 32.9966C13.5724 33 13.5648 33 13.5614 33L13.5576 32.9711L13.5543 32.9426L13.6373 32.9522C15.8742 32.4434 17.8687 31.3222 19.3322 29.751C20.7956 28.1797 21.6519 26.24 21.7771 24.2125V24.2092C21.8473 24.0578 21.8818 23.8955 21.8783 23.7321C21.9045 23.8916 21.8926 24.0543 21.8434 24.2096Z" fill="white"/>
</g>
</g>
</g>
<defs>
<linearGradient id="paint0_linear" x1="17.5" y1="4" x2="17.5" y2="32.9716" gradientUnits="userSpaceOnUse">
<stop offset="0.0520833"/>
<stop offset="0.354167" stop-color="#5E1713"/>
<stop offset="0.515625" stop-color="#C32F27"/>
<stop offset="0.671875" stop-color="#631814"/>
<stop offset="1"/>
</linearGradient>
<clipPath id="clip0">
<rect width="160" height="36" fill="white"/>
</clipPath>
</defs>
</svg>
